# xmcd CD database file
#
# Track frame offsets:
#	185
#	14375
#	24265
#	38180
#	58885
#	80877
#	90405
#	101565
#	113607
#	121165
#	131785
#	149965
#	164765
#	174872
#	188407
#	198317
#	210585
#	220715
#	231437
#	242405
#	257112
#	274197
#	290670
#	301140
#	312857
#	321455
#
# Disc length: 4440 seconds
#
# Revision: 0
# Processed by: cddbd v1.5.2PL0 Copyright (c) Steve Scherf et al.
# Submitted via: CDex 1.51
#
DISCID=7c11561a
DTITLE=The Squadronaires - There's Something In The Air
DYEAR=1900
DGENRE=Jazz
TTITLE0=Prelude in 'C" Minor
TTITLE1=The Nango
TTITLE2=The Waiter. The Porter and The Upstairs Maid
TTITLE3=Tuxedo Junction
TTITLE4=Mexican Hat Dance
TTITLE5=South Rampart Street Parade
TTITLE6=Jumpin' Jimmy
TTITLE7=High Society
TTITLE8=OK For Baby
TTITLE9=As Long As There's Music
TTITLE10=Darktown Strutter's Ball
TTITLE11=Cherokee
TTITLE12=Runnin' Wild
TTITLE13=There's Something In The Air
TTITLE14=He Ba-ba Re-Bop
TTITLE15=Pompton Turnpike
TTITLE16=Trees
TTITLE17=Jealous
TTITLE18=Lead With Your Left
TTITLE19=Flying Home
TTITLE20=I'm Getting Sentimental Over You
TTITLE21=I'm A Ding Dong Daddy From Dumas
TTITLE22=A Little On The Lonely Side
TTITLE23=Piccolo Pete
TTITLE24=I'll Be Seeing You
TTITLE25=I Ain't Got Nobody
EXTD=
EXTT0=
EXTT1=
EXTT2=
EXTT3=
EXTT4=
EXTT5=
EXTT6=
EXTT7=
EXTT8=
EXTT9=
EXTT10=
EXTT11=
EXTT12=
EXTT13=
EXTT14=
EXTT15=
EXTT16=
EXTT17=
EXTT18=
EXTT19=
EXTT20=
EXTT21=
EXTT22=
EXTT23=
EXTT24=
EXTT25=
PLAYORDER=
